<svg width="24" height="25" viewBox="0 0 24 25" fill="none" xmlns="http://www.w3.org/2000/svg">
<path fill-rule="evenodd" clip-rule="evenodd" d="M15.6016 2.64411C15.3816 2.42411 15.1056 2.43411 14.9536 2.45411C14.8106 2.47411 14.6386 2.52211 14.4746 2.56911L14.3496 2.60411L14.2466 2.54011C14.1125 2.45021 13.9721 2.37001 13.8266 2.30011C13.6766 2.23611 13.4256 2.16211 13.1606 2.30111C12.9006 2.43811 12.8146 2.68211 12.7806 2.83811C12.7495 2.99889 12.7295 3.1616 12.7206 3.32511L12.7106 3.45211V3.46211L12.5986 3.55511C12.4646 3.66511 12.3266 3.77811 12.2286 3.88511C12.1246 3.99911 11.9646 4.21211 12.0056 4.51011C12.0476 4.81711 12.2696 4.97611 12.4086 5.05411C12.5346 5.12411 12.7006 5.18411 12.8556 5.24211L12.9636 5.28211L13.0036 5.39111C13.0616 5.54511 13.1226 5.71111 13.1926 5.83711C13.2696 5.97711 13.4286 6.19911 13.7366 6.24111C14.0336 6.28111 14.2466 6.12111 14.3606 6.01711C14.4676 5.91911 14.5816 5.78111 14.6906 5.64711L14.7826 5.53611H14.7936L14.9216 5.52611C15.0896 5.51211 15.2666 5.49811 15.4076 5.46611C15.5636 5.43111 15.8076 5.34611 15.9446 5.08611C16.0846 4.82111 16.0106 4.56811 15.9446 4.41911C15.875 4.27361 15.7951 4.13325 15.7056 3.99911L15.6416 3.89711L15.6776 3.77111C15.7236 3.60711 15.7726 3.43511 15.7916 3.29211C15.8116 3.14011 15.8216 2.86411 15.6016 2.64411Z" fill="#53389E" style="fill:#53389E;fill:color(display-p3 0.3253 0.2182 0.6210);fill-opacity:1;"/>
<path d="M10.1866 2.38222C10.2707 2.43365 10.3439 2.50115 10.4018 2.58087C10.4598 2.66059 10.5015 2.75096 10.5246 2.84681C10.5476 2.94266 10.5515 3.0421 10.5361 3.13947C10.5206 3.23683 10.4862 3.33019 10.4346 3.41422C10.3582 3.53882 10.326 3.68555 10.3432 3.83071C10.3605 3.97587 10.4261 4.11098 10.5296 4.21422L10.6276 4.31122C11.2166 4.90022 11.4336 5.76522 11.1926 6.56122C11.1652 6.65672 11.1192 6.74582 11.057 6.82336C10.9949 6.9009 10.918 6.96533 10.8308 7.0129C10.7436 7.06047 10.6478 7.09024 10.549 7.10048C10.4502 7.11072 10.3503 7.10122 10.2552 7.07254C10.16 7.04386 10.0716 6.99656 9.99489 6.9334C9.9182 6.87024 9.85482 6.79248 9.80844 6.70462C9.76206 6.61676 9.73359 6.52057 9.7247 6.42162C9.7158 6.32267 9.72665 6.22294 9.75662 6.12822C9.79639 5.99681 9.79972 5.85707 9.76625 5.72392C9.73279 5.59077 9.66379 5.46921 9.56663 5.37222L9.46963 5.27422C9.12836 4.93298 8.91183 4.48685 8.85487 4.00762C8.79792 3.52839 8.90385 3.04394 9.15563 2.63222C9.25916 2.46259 9.42578 2.34099 9.6189 2.29411C9.81202 2.24724 10.0158 2.27893 10.1856 2.38222H10.1866ZM21.4096 13.8032C21.2323 13.7255 21.0365 13.7002 20.8452 13.7303C20.654 13.7605 20.4754 13.8447 20.3306 13.9732C19.9361 14.323 19.4415 14.5397 18.9169 14.5929C18.3923 14.646 17.8643 14.5328 17.4076 14.2692L17.1946 14.1472C17.0222 14.0478 16.8964 13.8839 16.8448 13.6917C16.7933 13.4994 16.8202 13.2946 16.9196 13.1222C17.0191 12.9498 17.1829 12.824 17.3752 12.7724C17.5674 12.7209 17.7722 12.7478 17.9446 12.8472L18.1576 12.9702C18.5346 13.1882 19.0096 13.1402 19.3356 12.8512C19.6946 12.533 20.1371 12.3242 20.6109 12.2494C21.0848 12.1746 21.5701 12.237 22.0096 12.4292L22.3006 12.5562C22.3909 12.5956 22.4725 12.6524 22.5409 12.7234C22.6092 12.7943 22.6629 12.878 22.6989 12.9697C22.7349 13.0614 22.7524 13.1593 22.7506 13.2578C22.7487 13.3563 22.7275 13.4534 22.6881 13.5437C22.6487 13.634 22.5919 13.7156 22.521 13.784C22.45 13.8523 22.3663 13.906 22.2746 13.942C22.1829 13.978 22.085 13.9955 21.9866 13.9937C21.8881 13.9918 21.7909 13.9706 21.7006 13.9312L21.4096 13.8032ZM12.9156 7.40122C12.815 7.3007 12.6785 7.24428 12.5363 7.24438C12.394 7.24447 12.2576 7.30107 12.1571 7.40172C12.0566 7.50237 12.0002 7.63883 12.0003 7.78107C12.0004 7.92332 12.057 8.0597 12.1576 8.16022C12.2584 8.26074 12.395 8.3171 12.5373 8.31691C12.6797 8.31672 12.8161 8.26 12.9166 8.15922C13.0171 8.05844 13.0735 7.92185 13.0733 7.77951C13.0731 7.63717 13.0164 7.50174 12.9156 7.40122Z" fill="#53389E" style="fill:#53389E;fill:color(display-p3 0.3253 0.2182 0.6210);fill-opacity:1;"/>
<path fill-rule="evenodd" clip-rule="evenodd" d="M22.5238 9.08618C22.7798 9.64018 22.6068 10.2692 22.1398 10.7362C21.8698 11.0062 21.5058 11.1302 21.1828 11.1872C20.8528 11.2462 20.5028 11.2472 20.1968 11.2272C19.8212 11.2021 19.448 11.1476 19.0808 11.0642L19.0608 11.0592L19.0558 11.0582H19.0528C18.9644 11.0362 18.8837 10.9905 18.8194 10.926C18.7551 10.8615 18.7096 10.7806 18.6878 10.6922L19.1728 10.5722L18.6878 10.6912L18.6868 10.6892L18.6858 10.6832L18.6808 10.6632C18.6567 10.558 18.635 10.4523 18.6158 10.3462C18.568 10.0822 18.535 9.81582 18.5168 9.54818C18.4915 9.21908 18.5049 8.88814 18.5568 8.56218C18.6148 8.23818 18.7368 7.87518 19.0088 7.60518C19.4758 7.13718 20.1048 6.96518 20.6588 7.22118C21.0788 7.41518 21.3518 7.80718 21.4548 8.29018C21.9368 8.39318 22.3288 8.66618 22.5238 9.08618Z" fill="#53389E" style="fill:#53389E;fill:color(display-p3 0.3253 0.2182 0.6210);fill-opacity:1;"/>
<path opacity="0.5" d="M17.6898 4.96604C17.8846 5.00513 18.056 5.11998 18.1663 5.28536C18.2765 5.45074 18.3166 5.65311 18.2778 5.84804L18.1338 6.56804C17.9358 7.55804 17.2218 8.36804 16.2638 8.68704C15.8158 8.83704 15.4818 9.21404 15.3898 9.67704L15.2458 10.397C15.2068 10.5921 15.0919 10.7637 14.9264 10.8741C14.7609 10.9844 14.5583 11.0245 14.3633 10.9855C14.1682 10.9465 13.9966 10.8317 13.8862 10.6662C13.7759 10.5007 13.7358 10.2981 13.7748 10.103L13.9188 9.38304C14.1168 8.39304 14.8308 7.58304 15.7888 7.26404C16.2368 7.11404 16.5708 6.73704 16.6628 6.27404L16.8078 5.55404C16.8469 5.35916 16.9617 5.18777 17.1271 5.07752C17.2925 4.96727 17.4948 4.92717 17.6898 4.96604ZM6.92877 4.18504C6.97841 4.13469 7.03753 4.09467 7.10271 4.06727C7.16788 4.03987 7.23784 4.02564 7.30854 4.02539C7.37925 4.02515 7.4493 4.03889 7.51467 4.06583C7.58004 4.09278 7.63943 4.13239 7.68942 4.18238C7.73942 4.23238 7.77903 4.29177 7.80597 4.35714C7.83291 4.42251 7.84666 4.49256 7.84641 4.56326C7.84616 4.63396 7.83193 4.70392 7.80453 4.7691C7.77713 4.83428 7.73711 4.89339 7.68677 4.94304C7.58601 5.0424 7.45005 5.09788 7.30854 5.09739C7.16704 5.09689 7.03147 5.04046 6.9314 4.9404C6.83134 4.84034 6.77491 4.70477 6.77442 4.56326C6.77392 4.42175 6.82941 4.28579 6.92877 4.18504Z" fill="#53389E" style="fill:#53389E;fill:color(display-p3 0.3253 0.2182 0.6210);fill-opacity:1;"/>
<path opacity="0.7" d="M19.8169 15.5572C19.767 15.5074 19.7078 15.4678 19.6426 15.4409C19.5775 15.4139 19.5076 15.4001 19.4371 15.4001C19.3666 15.4002 19.2967 15.4141 19.2316 15.4412C19.1665 15.4682 19.1073 15.5078 19.0574 15.5577C19.0076 15.6076 18.9681 15.6668 18.9411 15.732C18.9142 15.7972 18.9003 15.867 18.9004 15.9375C18.9004 16.0081 18.9144 16.0779 18.9414 16.143C18.9684 16.2082 19.008 16.2674 19.0579 16.3172C19.1587 16.4178 19.2954 16.4743 19.4378 16.4742C19.5802 16.4741 19.7168 16.4175 19.8174 16.3167C19.9181 16.2159 19.9746 16.0793 19.9745 15.9368C19.9744 15.7944 19.9177 15.6578 19.8169 15.5572Z" fill="#53389E" style="fill:#53389E;fill:color(display-p3 0.3253 0.2182 0.6210);fill-opacity:1;"/>
<path opacity="0.2" d="M17.1578 10.402C17.2074 10.3516 17.2665 10.3116 17.3316 10.2841C17.3967 10.2566 17.4667 10.2423 17.5374 10.2419C17.6081 10.2416 17.6781 10.2553 17.7435 10.2821C17.8089 10.309 17.8684 10.3485 17.9184 10.3984C17.9685 10.4484 18.0082 10.5077 18.0352 10.573C18.0622 10.6383 18.0761 10.7084 18.0759 10.7791C18.0758 10.8498 18.0616 10.9197 18.0343 10.985C18.007 11.0502 17.9671 11.1093 17.9168 11.159C17.867 11.2089 17.8079 11.2484 17.7429 11.2754C17.6778 11.3024 17.6081 11.3163 17.5377 11.3164C17.4672 11.3164 17.3975 11.3026 17.3324 11.2757C17.2673 11.2488 17.2082 11.2093 17.1583 11.1595C17.1085 11.1098 17.0689 11.0507 17.0419 10.9856C17.0149 10.9206 17.001 10.8508 17.001 10.7804C17.0009 10.71 17.0148 10.6402 17.0417 10.5751C17.0686 10.51 17.108 10.4509 17.1578 10.401V10.402Z" fill="#53389E" style="fill:#53389E;fill:color(display-p3 0.3253 0.2182 0.6210);fill-opacity:1;"/>
<path opacity="0.5" d="M4.0118 15.9842L5.7018 10.9152C6.4678 8.61722 6.8508 7.46822 7.7568 7.25522C8.6628 7.04022 9.5198 7.89722 11.2318 9.61022L14.6118 12.9892C16.3238 14.7022 17.1808 15.5582 16.9668 16.4642C16.7528 17.3702 15.6038 17.7542 13.3058 18.5192L8.2368 20.2092C5.4718 21.1312 4.0888 21.5922 3.3588 20.8622C2.6288 20.1322 3.0898 18.7492 4.0118 15.9842Z" fill="#53389E" style="fill:#53389E;fill:color(display-p3 0.3253 0.2182 0.6210);fill-opacity:1;"/>
<path d="M8.79964 7.72608L8.84964 7.48108C8.45764 7.25108 8.11064 7.17108 7.75664 7.25408C7.61464 7.28742 7.48004 7.34675 7.35964 7.42908L8.05564 7.57308C7.57764 7.47308 7.41464 7.44008 7.35964 7.42908C7.34784 7.43689 7.33618 7.44489 7.32464 7.45308L7.31964 7.47908C7.27022 7.72176 7.22422 7.96512 7.18164 8.20908C7.06558 8.85337 6.96189 9.49982 6.87064 10.1481C6.65564 11.6811 6.45564 13.6401 6.55864 15.2051C6.62064 16.1531 6.81864 17.3281 6.99364 18.2451C7.09003 18.7476 7.19404 19.2487 7.30564 19.7481L7.32664 19.8411L7.33264 19.8661L7.33464 19.8751L7.47164 20.4631L8.23664 20.2091L8.90064 19.9881L8.79464 19.5281L8.78864 19.5071L8.76864 19.4191L8.69664 19.0891C8.61554 18.715 8.53886 18.34 8.46664 17.9641C8.29364 17.0571 8.11164 15.9571 8.05564 15.1071C7.96364 13.7031 8.14364 11.8711 8.35564 10.3571C8.47758 9.49275 8.6223 8.63179 8.78964 7.77508L8.79764 7.73808L8.79964 7.72808V7.72608ZM13.0396 18.6081L11.6156 19.0831L11.5236 18.8051L11.5226 18.8021L11.5206 18.7961L11.5136 18.7741C11.4729 18.6515 11.4346 18.5282 11.3986 18.4041C11.3246 18.1571 11.2266 17.8141 11.1286 17.4211C10.9366 16.6511 10.7266 15.6291 10.7266 14.7771C10.7266 13.9251 10.9366 12.9031 11.1286 12.1341C11.2427 11.6788 11.3711 11.2273 11.5136 10.7801L11.5206 10.7591L11.5226 10.7521L12.2356 10.9861L11.5236 10.7501L11.7356 10.1131L12.9216 11.3001L12.9176 11.3141L12.8356 11.5811C12.7666 11.8111 12.6756 12.1311 12.5836 12.4971C12.3966 13.2471 12.2266 14.1191 12.2266 14.7771C12.2266 15.4351 12.3966 16.3081 12.5836 17.0571C12.6893 17.4783 12.808 17.8962 12.9396 18.3101L12.9456 18.3271L12.9466 18.3311L13.0386 18.6081H13.0396Z" fill="#53389E" style="fill:#53389E;fill:color(display-p3 0.3253 0.2182 0.6210);fill-opacity:1;"/>
</svg>
