<svg width="20" height="21" viewBox="0 0 20 21" fill="none" xmlns="http://www.w3.org/2000/svg">
<path d="M16.6667 7.75H9.16667C8.24619 7.75 7.5 8.49619 7.5 9.41667V16.9167C7.5 17.8371 8.24619 18.5833 9.16667 18.5833H16.6667C17.5871 18.5833 18.3333 17.8371 18.3333 16.9167V9.41667C18.3333 8.49619 17.5871 7.75 16.6667 7.75Z" stroke="#667085" style="stroke:#667085;stroke:color(display-p3 0.4009 0.4408 0.5207);stroke-opacity:1;" stroke-width="1.67" stroke-linecap="round" stroke-linejoin="round"/>
<path d="M4.16699 12.7503H3.33366C2.89163 12.7503 2.46771 12.5747 2.15515 12.2622C1.84259 11.9496 1.66699 11.5257 1.66699 11.0837V3.58366C1.66699 3.14163 1.84259 2.71771 2.15515 2.40515C2.46771 2.09259 2.89163 1.91699 3.33366 1.91699H10.8337C11.2757 1.91699 11.6996 2.09259 12.0122 2.40515C12.3247 2.71771 12.5003 3.14163 12.5003 3.58366V4.41699" stroke="#667085" style="stroke:#667085;stroke:color(display-p3 0.4009 0.4408 0.5207);stroke-opacity:1;" stroke-width="1.67" stroke-linecap="round" stroke-linejoin="round"/>
</svg>
