<svg width="21" height="20" viewBox="0 0 21 20" fill="none" xmlns="http://www.w3.org/2000/svg">
<g clip-path="url(#clip0_784_31228)">
<path d="M13.4829 4.16732C14.2969 4.32612 15.0449 4.7242 15.6313 5.3106C16.2177 5.897 16.6158 6.64504 16.7746 7.45898M13.4829 0.833984C15.174 1.02185 16.7509 1.77913 17.9548 2.98149C19.1587 4.18385 19.9179 5.75983 20.1079 7.45065M19.2746 14.1007V16.6007C19.2755 16.8327 19.228 17.0625 19.135 17.2751C19.0421 17.4878 18.9057 17.6786 18.7347 17.8355C18.5636 17.9924 18.3617 18.1119 18.1419 18.1862C17.922 18.2606 17.6891 18.2882 17.4579 18.2673C14.8936 17.9887 12.4304 17.1124 10.2663 15.709C8.25279 14.4295 6.54572 12.7225 5.26627 10.709C3.85792 8.53499 2.98147 6.05981 2.70794 3.48398C2.68711 3.25354 2.7145 3.02128 2.78835 2.802C2.86221 2.58272 2.98091 2.38123 3.13691 2.21034C3.2929 2.03945 3.48277 1.90291 3.69443 1.80942C3.90608 1.71593 4.13489 1.66754 4.36627 1.66732H6.86627C7.27069 1.66334 7.66276 1.80655 7.9694 2.07026C8.27605 2.33397 8.47633 2.70019 8.53294 3.10065C8.63846 3.90071 8.83414 4.68626 9.11627 5.44232C9.22839 5.74059 9.25265 6.06475 9.18619 6.37638C9.11973 6.68802 8.96532 6.97408 8.74127 7.20065L7.68294 8.25898C8.86923 10.3453 10.5966 12.0727 12.6829 13.259L13.7413 12.2007C13.9678 11.9766 14.2539 11.8222 14.5655 11.7557C14.8772 11.6893 15.2013 11.7135 15.4996 11.8257C16.2557 12.1078 17.0412 12.3035 17.8413 12.409C18.2461 12.4661 18.6158 12.67 18.88 12.9819C19.1443 13.2938 19.2847 13.692 19.2746 14.1007Z" stroke="#667085" style="stroke:#667085;stroke:color(display-p3 0.4009 0.4408 0.5207);stroke-opacity:1;" stroke-width="1.67" stroke-linecap="round" stroke-linejoin="round"/>
</g>
<defs>
<clipPath id="clip0_784_31228">
<rect width="20" height="20" fill="white" style="fill:white;fill-opacity:1;" transform="translate(0.941406)"/>
</clipPath>
</defs>
</svg>
