<svg width="20" height="21" viewBox="0 0 20 21" fill="none" xmlns="http://www.w3.org/2000/svg">
<g clip-path="url(#clip0_300_537)">
<path d="M13.3337 14.0833L10.0003 10.75L6.66699 14.0833" stroke="#667085" style="stroke:#667085;stroke:color(display-p3 0.4009 0.4408 0.5207);stroke-opacity:1;" stroke-width="2" stroke-linecap="round" stroke-linejoin="round"/>
<path d="M10 10.75V18.25" stroke="#667085" style="stroke:#667085;stroke:color(display-p3 0.4009 0.4408 0.5207);stroke-opacity:1;" stroke-width="2" stroke-linecap="round" stroke-linejoin="round"/>
<path d="M16.9919 16.0749C17.8047 15.6318 18.4467 14.9306 18.8168 14.0821C19.1868 13.2335 19.2637 12.2859 19.0354 11.3888C18.807 10.4917 18.2865 9.69616 17.5558 9.12778C16.8251 8.55939 15.9259 8.25052 15.0002 8.2499H13.9502C13.698 7.27427 13.2278 6.36852 12.5752 5.60073C11.9225 4.83295 11.1042 4.22311 10.182 3.81708C9.25967 3.41104 8.25734 3.21937 7.25031 3.25647C6.24328 3.29358 5.25777 3.55849 4.36786 4.03129C3.47795 4.5041 2.7068 5.17249 2.1124 5.98622C1.51799 6.79996 1.11579 7.73785 0.936028 8.7294C0.756269 9.72095 0.803632 10.7403 1.07456 11.711C1.34548 12.6816 1.83291 13.5781 2.50021 14.3332" stroke="#667085" style="stroke:#667085;stroke:color(display-p3 0.4009 0.4408 0.5207);stroke-opacity:1;" stroke-width="2" stroke-linecap="round" stroke-linejoin="round"/>
<path d="M13.3337 14.0833L10.0003 10.75L6.66699 14.0833" stroke="#667085" style="stroke:#667085;stroke:color(display-p3 0.4009 0.4408 0.5207);stroke-opacity:1;" stroke-width="2" stroke-linecap="round" stroke-linejoin="round"/>
</g>
<defs>
<clipPath id="clip0_300_537">
<rect width="20" height="20" fill="white" style="fill:white;fill:white;fill-opacity:1;" transform="translate(0 0.75)"/>
</clipPath>
</defs>
</svg>
