<svg width="21" height="21" viewBox="0 0 21 21" fill="none" xmlns="http://www.w3.org/2000/svg">
<g clip-path="url(#clip0_13_503)">
<path d="M14.6667 18V16.3333C14.6667 15.4493 14.3155 14.6014 13.6904 13.9763C13.0652 13.3512 12.2174 13 11.3333 13H4.66666C3.78261 13 2.93476 13.3512 2.30964 13.9763C1.68452 14.6014 1.33333 15.4493 1.33333 16.3333V18" stroke="currentColor"  stroke-width="1.65" stroke-linecap="round" stroke-linejoin="round"/>
<path d="M7.99999 9.66667C9.84094 9.66667 11.3333 8.17428 11.3333 6.33333C11.3333 4.49238 9.84094 3 7.99999 3C6.15904 3 4.66666 4.49238 4.66666 6.33333C4.66666 8.17428 6.15904 9.66667 7.99999 9.66667Z" stroke="currentColor"  stroke-width="1.65" stroke-linecap="round" stroke-linejoin="round"/>
<path d="M19.6667 18V16.3333C19.6661 15.5948 19.4203 14.8773 18.9678 14.2936C18.5153 13.7099 17.8818 13.293 17.1667 13.1083" stroke="currentColor"  stroke-width="1.65" stroke-linecap="round" stroke-linejoin="round"/>
<path d="M13.8333 3.10833C14.5504 3.29192 15.1859 3.70892 15.6397 4.29359C16.0935 4.87827 16.3399 5.59736 16.3399 6.3375C16.3399 7.07764 16.0935 7.79673 15.6397 8.38141C15.1859 8.96608 14.5504 9.38308 13.8333 9.56667" stroke="currentColor"  stroke-width="1.65" stroke-linecap="round" stroke-linejoin="round"/>
</g>
<defs>
<clipPath id="clip0_13_503">
<rect width="20" height="20"  transform="translate(0.5 0.5)"/>
</clipPath>
</defs>
</svg>
